<?xml version="1.0" encoding="utf-8"?>
<!-- Generator: Adobe Illustrator 23.0.2, SVG Export Plug-In . SVG Version: 6.00 Build 0)  -->
<svg version="1.1" id="Слой_1" xmlns="http://www.w3.org/2000/svg" xmlns:xlink="http://www.w3.org/1999/xlink" x="0px" y="0px"
	 viewBox="0 0 244 50" style="enable-background:new 0 0 244 50;" xml:space="preserve" width="244px" height="50px">
<style type="text/css">
	.st0{fill-rule:evenodd;clip-rule:evenodd;fill:#00D3A1;}
	.st1{fill-rule:evenodd;clip-rule:evenodd;fill:#85F1D3;}
	.st2{fill:#00D3A1;}
	.st3{fill:#FFFFFF;}
</style>
<path class="st0" d="M15.3,9.7L15.3,9.7c-0.6,0.6-0.6,1.6,0,2.2l25.7,26.6c0.6,0.6,1.6,0.5,2.1,0c0.6-0.6,0.6-1.6,0-2.2L17.3,9.7
	C16.8,9.1,15.8,9.1,15.3,9.7z"/>
<path class="st1" d="M33.1,17.2L45.5,4.4c0.7-0.7,1.8-0.7,2.4,0l0,0c0.7,0.7,0.7,1.8,0,2.5l-12.7,13C34.5,19,33.7,18.1,33.1,17.2z
	 M37.6,22.5L52.4,7.3c0.7-0.7,1.7-0.7,2.4,0l0,0c0.7,0.7,0.7,1.8,0,2.5L40.1,25C39.2,24.2,38.4,23.4,37.6,22.5z M39.6,25.5
	L39.6,25.5c0.9,1,1.9,2,2.8,2.9l0,0c2.5,2.4,4.5,4.3,4.7,4.4c0.8,0.3,1.4,0.4,1.8,0l2.3-2.3l0.2-0.2l0.2-0.2l6-6.2
	c2.5-2.6,3.8-6,3.8-9.4s-1.3-6.8-3.8-9.4l-0.3-0.3C54.9,2.2,51.7,1,48.5,1c-3.2,0-6.4,1.2-8.9,3.6l-0.3,0.3l-6,6.2l-0.2,0.2
	l-0.2,0.2l-2.3,2.4c-0.3,0.3-0.1,0.8,0.3,1.5C32.1,17.5,35.9,21.7,39.6,25.5z M43,27.8l12.8-13.1c0.7-0.7,1.8-0.7,2.4,0l0,0
	c0.7,0.7,0.7,1.8,0,2.5l-12.6,13C44.8,29.5,43.9,28.7,43,27.8z"/>
<path class="st0" d="M20.5,33.2L20.5,33.2L32.9,46c0.6,0.7,0.6,1.7,0,2.4l0,0c-0.6,0.7-1.7,0.7-2.3,0L12.7,29.9
	c-0.1-0.1-0.3-0.3-0.4-0.4l-6-6.2c-4.8-5-4.8-13.1,0-18.1l0,0c4.8-5,12.8-5,17.6,0l6,6.2c0.1,0.1,0.3,0.3,0.4,0.5l18,18.5
	c0.6,0.6,0.6,1.7,0,2.3l0,0c-0.6,0.7-1.7,0.7-2.3,0L26.3,12.3l-0.1-0.1l-0.3-0.3l-4.2-4.4c-3.7-3.8-9.3-4-12.9-0.3l0,0
	C5,11.1,5,17.2,8.7,21l4.2,4.4l0.3,0.3l4.1,4.2c0.2,0.2,0.3,0.4,0.5,0.5L20.5,33.2z"/>
<path class="st2" d="M21.3,33.5L33,45.6c0.8,0.8,0.8,2,0,2.8c-0.8,0.8-1.9,0.7-2.7,0c-1.6-1-15.3-15.7-17.8-18.4l-0.2-0.2L12,29.7
	l-6-6.2c-2.5-2.6-3.7-5.9-3.7-9.3S3.5,7.5,6,4.9l0.3-0.3C8.7,2.2,11.9,1,15,1c3.2,0,6.3,1.2,8.8,3.6l0.3,0.3l6,6.2l0.2,0.2l0.2,0.2
	l18,18.5c0.4,0.4,0.6,0.9,0.6,1.4s-0.2,1-0.6,1.4l0,0c-0.4,0.4-0.9,0.5-1.3,0.5c-0.5,0-1-0.2-1.3-0.5C44,31.9,28.8,15.5,26,12.6
	c-1.6-1.4-3.2-3.3-4.7-4.8l-0.2-0.2c-1.7-1.7-3.9-2.6-6-2.6c-2.1-0.1-4.3,0.7-6,2.4L8.9,7.5c-1.8,1.8-2.6,4.2-2.6,6.6
	c0,2.4,0.9,4.8,2.6,6.6c2.8,2.9,6.3,6.2,8.9,9.2c0.1,0.1,0.2,0.2,0.2,0.3L21.3,33.5C21.3,33.6,21.3,33.6,21.3,33.5z"/>
<path class="st0" d="M10.6,14.3L10.6,14.3c-0.6,0.6-0.6,1.6,0,2.2L36.3,43c0.6,0.6,1.5,0.6,2.1,0l0,0c0.6-0.6,0.6-1.6,0-2.2
	L12.7,14.3C12.1,13.7,11.2,13.7,10.6,14.3z"/>
<path class="st3" d="M87.6,34.3c0.2,0,0.3,0,0.4,0.2c0.1,0.1,0.1,0.2,0.1,0.4V40c0,0.2,0,0.3-0.1,0.4c-0.1,0.1-0.2,0.1-0.4,0.1
	s-0.3,0-0.3-0.1c-0.1-0.1-0.1-0.2-0.1-0.4v-3.6l-1.5,2.8c-0.1,0.1-0.2,0.2-0.2,0.3c-0.1,0.1-0.2,0.1-0.3,0.1s-0.2,0-0.3-0.1
	c-0.1,0-0.2-0.2-0.2-0.3l-1.5-2.7V40c0,0.2-0.1,0.3-0.1,0.4c-0.1,0.1-0.2,0.2-0.4,0.2s-0.3,0-0.3-0.1s-0.1-0.2-0.1-0.4v-5.1
	c0-0.2,0.1-0.3,0.1-0.4c0.1-0.1,0.2-0.2,0.4-0.2c0.2,0,0.4,0.1,0.5,0.4l1.9,3.7l1.9-3.7C87.2,34.5,87.3,34.3,87.6,34.3z"/>
<path class="st3" d="M143.6,34.7c0.1-0.1,0.2-0.2,0.3-0.3c0.1,0,0.2-0.1,0.4-0.1c0.2,0,0.3,0,0.4,0.1c0.1,0.1,0.1,0.2,0.1,0.4V40
	c0,0.2-0.1,0.3-0.1,0.4c-0.1,0.1-0.2,0.2-0.4,0.2c-0.2,0-0.3,0-0.4-0.2c-0.1-0.1-0.1-0.2-0.1-0.4v-4l-2.9,4.1
	c-0.1,0.2-0.2,0.3-0.3,0.4s-0.3,0.1-0.4,0.1c-0.2,0-0.3,0-0.4-0.2c-0.1-0.1-0.1-0.2-0.1-0.4v-5.1c0-0.2,0.1-0.3,0.1-0.4
	c0.1-0.1,0.2-0.2,0.4-0.2c0.2,0,0.3,0,0.4,0.2c0.1,0.1,0.1,0.2,0.1,0.4v4L143.6,34.7L143.6,34.7z"/>
<path class="st3" d="M214.8,40.5c-0.2,0-0.3,0-0.4-0.2c-0.1-0.1-0.2-0.2-0.2-0.4v-5.1c0-0.2,0.1-0.3,0.1-0.4
	c0.1-0.1,0.2-0.1,0.4-0.1h2.1c0.6,0,1.2,0.2,1.5,0.5c0.4,0.3,0.6,0.8,0.6,1.4c0,0.6-0.2,1-0.6,1.4s-0.9,0.5-1.5,0.5h-1.6V40
	c0,0.2-0.1,0.3-0.1,0.4C215.1,40.5,215,40.5,214.8,40.5z M216.8,37.3c0.8,0,1.1-0.3,1.1-1s-0.4-1-1.1-1h-1.4v2H216.8z"/>
<path class="st3" d="M92.7,39.5c0.1,0,0.1,0,0.2,0.1c0,0.1,0.1,0.1,0.1,0.2c0,0.2-0.1,0.3-0.3,0.4c-0.2,0.1-0.4,0.2-0.7,0.3
	c-0.2,0.1-0.4,0.1-0.7,0.1c-0.7,0-1.2-0.2-1.5-0.6c-0.4-0.4-0.6-0.9-0.6-1.6c0-0.4,0.1-0.8,0.3-1.1c0.2-0.3,0.4-0.6,0.7-0.8
	c0.3-0.2,0.6-0.3,1-0.3c0.6,0,1,0.2,1.3,0.5c0.3,0.4,0.5,0.8,0.5,1.5c0,0.1,0,0.2-0.1,0.3s-0.1,0.1-0.2,0.1h-2.8
	c0.1,1,0.5,1.5,1.4,1.5c0.2,0,0.4,0,0.6-0.1s0.3-0.1,0.5-0.2C92.5,39.5,92.6,39.5,92.7,39.5z M91.2,36.7c-0.4,0-0.7,0.1-0.9,0.3
	s-0.3,0.5-0.4,1h2.4c0-0.4-0.1-0.8-0.3-1C91.8,36.8,91.5,36.7,91.2,36.7z"/>
<path class="st3" d="M93.7,41.6c-0.1,0-0.2,0-0.2-0.1s-0.1-0.2-0.1-0.3v-1c0-0.1,0-0.2,0.1-0.3c0.1-0.1,0.1-0.1,0.2-0.1h0.2
	c0.2-0.3,0.4-0.7,0.4-1.1c0.1-0.4,0.1-1,0.1-1.6v-0.6c0-0.1,0-0.2,0.1-0.3s0.2-0.1,0.3-0.1H97c0.1,0,0.2,0,0.3,0.1
	c0.1,0.1,0.1,0.2,0.1,0.3v3.3h0.3c0.1,0,0.2,0,0.3,0.1c0.1,0.1,0.1,0.2,0.1,0.3v1c0,0.1,0,0.2-0.1,0.3c-0.1,0.1-0.1,0.1-0.2,0.1
	s-0.2,0-0.2-0.1s-0.1-0.2-0.1-0.3v-0.8h-3.3v0.8c0,0.1,0,0.2-0.1,0.3S93.8,41.6,93.7,41.6z M96.6,36.8h-1.6v0.4
	c0,1.3-0.2,2.2-0.6,2.7h2.1C96.6,39.9,96.6,36.8,96.6,36.8z"/>
<path class="st3" d="M101.8,36.4c0.1-0.1,0.1-0.1,0.2-0.2c0.1,0,0.1-0.1,0.2-0.1c0.1,0,0.2,0,0.3,0.1c0.1,0.1,0.1,0.2,0.1,0.3v3.6
	c0,0.1,0,0.2-0.1,0.2c-0.1,0.1-0.1,0.1-0.2,0.1c-0.1,0-0.2,0-0.2-0.1c-0.1-0.1-0.1-0.2-0.1-0.2v-3l-2.3,3.2
	c-0.1,0.1-0.2,0.2-0.4,0.2c-0.1,0-0.2,0-0.3-0.1c-0.1-0.1-0.1-0.2-0.1-0.3v-3.6c0-0.1,0-0.2,0.1-0.3c0.1-0.1,0.2-0.1,0.3-0.1
	s0.2,0,0.2,0.1c0.1,0.1,0.1,0.2,0.1,0.3v3C99.5,39.5,101.8,36.4,101.8,36.4z"/>
<path class="st3" d="M107.6,41.6c-0.1,0-0.2,0-0.2-0.1s-0.1-0.2-0.1-0.3v-0.8h-3.2c-0.1,0-0.2,0-0.3-0.1c-0.1-0.1-0.1-0.1-0.1-0.3
	v-3.6c0-0.1,0-0.2,0.1-0.3c0.1-0.1,0.2-0.1,0.3-0.1s0.2,0,0.3,0.1c0.1,0.1,0.1,0.2,0.1,0.3v3.4h2.1v-3.4c0-0.1,0-0.2,0.1-0.3
	c0.1-0.1,0.2-0.1,0.3-0.1c0.1,0,0.2,0,0.3,0.1c0.1,0.1,0.1,0.2,0.1,0.3v3.4h0.3c0.1,0,0.2,0,0.3,0.1c0.1,0.1,0.1,0.2,0.1,0.3v1
	c0,0.1,0,0.2-0.1,0.3C107.8,41.6,107.7,41.6,107.6,41.6z"/>
<path class="st3" d="M111.7,36.4c0.1-0.1,0.1-0.1,0.2-0.2c0.1,0,0.1-0.1,0.2-0.1c0.1,0,0.2,0,0.3,0.1c0.1,0.1,0.1,0.2,0.1,0.3v3.6
	c0,0.1,0,0.2-0.1,0.2c-0.1,0.1-0.1,0.1-0.2,0.1c-0.1,0-0.2,0-0.2-0.1c-0.1-0.1-0.1-0.2-0.1-0.2v-3l-2.3,3.2
	c-0.1,0.1-0.2,0.2-0.4,0.2c-0.1,0-0.2,0-0.3-0.1c-0.1-0.1-0.1-0.2-0.1-0.3v-3.6c0-0.1,0-0.2,0.1-0.3c0.1-0.1,0.2-0.1,0.3-0.1
	s0.2,0,0.2,0.1c0.1,0.1,0.1,0.2,0.1,0.3v3C109.5,39.5,111.7,36.4,111.7,36.4z"/>
<path class="st3" d="M114.1,40.5c-0.1,0-0.2,0-0.3-0.1c-0.1-0.1-0.1-0.2-0.1-0.3v-3.7c0-0.1,0-0.2,0.1-0.3c0.1-0.1,0.2-0.1,0.3-0.1
	s0.2,0,0.3,0.1c0.1,0.1,0.1,0.2,0.1,0.3V38h2.3v-1.5c0-0.1,0-0.2,0.1-0.3c0.1-0.1,0.2-0.1,0.3-0.1s0.2,0,0.3,0.1
	c0.1,0.1,0.1,0.2,0.1,0.3v3.6c0,0.1,0,0.2-0.1,0.3c-0.1,0.1-0.2,0.1-0.3,0.1c-0.1,0-0.2,0-0.3-0.1c-0.1-0.1-0.1-0.2-0.1-0.3v-1.6
	h-2.3v1.6c0,0.1,0,0.2-0.1,0.3C114.3,40.5,114.2,40.5,114.1,40.5z"/>
<path class="st3" d="M120.5,40.5c-0.4,0-0.7-0.1-1-0.3c-0.3-0.2-0.5-0.4-0.7-0.8c-0.2-0.3-0.3-0.7-0.3-1.1c0-0.4,0.1-0.8,0.3-1.2
	c0.2-0.3,0.4-0.6,0.7-0.8c0.3-0.2,0.7-0.3,1.1-0.3c0.2,0,0.4,0,0.7,0.1c0.2,0.1,0.4,0.2,0.6,0.3c0.1,0.1,0.2,0.1,0.2,0.2
	c0,0.1,0.1,0.1,0.1,0.2c0,0.1,0,0.1-0.1,0.2c0,0.1-0.1,0.1-0.2,0.1c0,0-0.1,0-0.1,0c-0.1,0-0.1,0-0.1-0.1c0,0-0.1,0-0.1,0
	c-0.2-0.1-0.3-0.2-0.4-0.2c-0.1-0.1-0.3-0.1-0.5-0.1c-0.4,0-0.7,0.2-1,0.4c-0.2,0.3-0.3,0.7-0.3,1.2c0,0.5,0.1,0.9,0.3,1.2
	c0.2,0.3,0.6,0.4,1,0.4c0.2,0,0.4,0,0.5-0.1s0.3-0.1,0.4-0.2c0.1,0,0.1-0.1,0.2-0.1s0.1,0,0.2,0c0.1,0,0.1,0,0.2,0.1
	c0,0,0.1,0.1,0.1,0.2c0,0.1,0,0.2-0.1,0.2c0,0.1-0.1,0.1-0.2,0.2c-0.2,0.1-0.4,0.2-0.6,0.3C120.9,40.5,120.7,40.5,120.5,40.5
	L120.5,40.5z"/>
<path class="st3" d="M124.8,38.2c0.2,0.1,0.4,0.2,0.5,0.3c0.1,0.1,0.3,0.3,0.4,0.6l0.5,0.9c0,0,0.1,0.1,0.1,0.2c0,0.1,0,0.2-0.1,0.2
	c-0.1,0.1-0.2,0.1-0.2,0.1c-0.1,0-0.2-0.1-0.3-0.2l-0.7-1.1c-0.2-0.3-0.3-0.4-0.4-0.5c-0.1-0.1-0.3-0.1-0.6-0.1h-0.5v1.6
	c0,0.1,0,0.2-0.1,0.3c-0.1,0.1-0.2,0.1-0.3,0.1c-0.1,0-0.2,0-0.3-0.1s-0.1-0.2-0.1-0.3v-3.7c0-0.1,0-0.2,0.1-0.3s0.2-0.1,0.3-0.1
	c0.1,0,0.2,0,0.3,0.1c0.1,0.1,0.1,0.2,0.1,0.3V38h0.6l1.4-1.7c0.1-0.1,0.2-0.2,0.3-0.2c0.1,0,0.2,0,0.2,0.1s0.1,0.1,0.1,0.2
	c0,0.1,0,0.2-0.1,0.2C126.1,36.7,124.8,38.2,124.8,38.2z"/>
<path class="st3" d="M130.2,36.4c0.1-0.1,0.1-0.1,0.2-0.2c0.1,0,0.1-0.1,0.2-0.1c0.1,0,0.2,0,0.3,0.1c0.1,0.1,0.1,0.2,0.1,0.3v3.6
	c0,0.1,0,0.2-0.1,0.2c-0.1,0.1-0.1,0.1-0.3,0.1c-0.1,0-0.2,0-0.2-0.1c-0.1-0.1-0.1-0.2-0.1-0.2v-3l-2.3,3.2
	c-0.1,0.1-0.2,0.2-0.4,0.2c-0.1,0-0.2,0-0.3-0.1c-0.1-0.1-0.1-0.2-0.1-0.3v-3.6c0-0.1,0-0.2,0.1-0.3c0.1-0.1,0.2-0.1,0.2-0.1
	c0.1,0,0.2,0,0.3,0.1c0.1,0.1,0.1,0.2,0.1,0.3v3L130.2,36.4L130.2,36.4z"/>
<path class="st3" d="M135.2,36.4c0.1-0.1,0.1-0.1,0.2-0.2c0.1,0,0.1-0.1,0.2-0.1c0.1,0,0.2,0,0.3,0.1c0.1,0.1,0.1,0.2,0.1,0.3v3.6
	c0,0.1,0,0.2-0.1,0.2c-0.1,0.1-0.1,0.1-0.2,0.1c-0.1,0-0.2,0-0.2-0.1c-0.1-0.1-0.1-0.2-0.1-0.2v-3l-2.3,3.2
	c-0.1,0.1-0.2,0.2-0.4,0.2c-0.1,0-0.2,0-0.3-0.1c-0.1-0.1-0.1-0.2-0.1-0.3v-3.6c0-0.1,0-0.2,0.1-0.3c0.1-0.1,0.1-0.1,0.3-0.1
	s0.2,0,0.2,0.1c0.1,0.1,0.1,0.2,0.1,0.3v3L135.2,36.4L135.2,36.4z M134.1,35.4c-0.3,0-0.6-0.1-0.8-0.2c-0.2-0.2-0.4-0.4-0.5-0.7
	c0,0,0-0.1,0-0.1c0-0.1,0-0.1,0.1-0.2c0.1,0,0.1-0.1,0.2-0.1c0.1,0,0.2,0,0.3,0.2c0.2,0.4,0.5,0.6,0.9,0.6c0.2,0,0.4,0,0.5-0.2
	c0.1-0.1,0.3-0.3,0.4-0.4c0.1-0.1,0.1-0.2,0.3-0.2c0.1,0,0.1,0,0.2,0.1c0.1,0,0.1,0.1,0.1,0.2c0,0,0,0.1,0,0.1
	c-0.1,0.3-0.3,0.5-0.5,0.6C134.7,35.3,134.4,35.4,134.1,35.4L134.1,35.4z"/>
<path class="st3" d="M146.4,40.5c-0.1,0-0.2,0-0.3-0.1c-0.1-0.1-0.1-0.2-0.1-0.3v-3.7c0-0.1,0-0.2,0.1-0.3c0.1-0.1,0.1-0.1,0.3-0.1
	c0.1,0,0.2,0,0.3,0.1c0.1,0.1,0.1,0.2,0.1,0.3V38h2.3v-1.5c0-0.1,0-0.2,0.1-0.3s0.1-0.1,0.3-0.1c0.1,0,0.2,0,0.3,0.1
	c0.1,0.1,0.1,0.2,0.1,0.3l0,3.6c0,0.1,0,0.2-0.1,0.3c-0.1,0.1-0.1,0.1-0.3,0.1c-0.1,0-0.2,0-0.3-0.1c-0.1-0.1-0.1-0.2-0.1-0.3v-1.6
	h-2.3v1.6c0,0.1,0,0.2-0.1,0.3C146.6,40.5,146.5,40.5,146.4,40.5z"/>
<path class="st3" d="M153.2,42.1c-0.1,0-0.2,0-0.2-0.1c-0.1-0.1-0.1-0.1-0.1-0.2v-1.3c-0.3,0-0.7-0.1-1-0.2
	c-0.3-0.2-0.6-0.4-0.8-0.7s-0.3-0.7-0.3-1.2c0-0.5,0.1-0.9,0.3-1.2c0.2-0.3,0.5-0.6,0.8-0.7c0.3-0.2,0.7-0.2,1-0.2v-1.6
	c0-0.1,0-0.2,0.1-0.2c0.1-0.1,0.1-0.1,0.2-0.1c0.1,0,0.2,0,0.3,0.1c0.1,0.1,0.1,0.1,0.1,0.2v1.6c0.3,0,0.7,0.1,1,0.2
	c0.3,0.2,0.6,0.4,0.8,0.7c0.2,0.3,0.3,0.7,0.3,1.2c0,0.5-0.1,0.9-0.3,1.2c-0.2,0.3-0.5,0.6-0.8,0.7c-0.3,0.1-0.7,0.2-1,0.2v1.3
	c0,0.1,0,0.2-0.1,0.2C153.4,42.1,153.4,42.1,153.2,42.1z M152.9,36.7c-0.5,0-0.9,0.2-1.1,0.5c-0.2,0.3-0.3,0.7-0.3,1.1
	s0.1,0.8,0.3,1.1s0.6,0.5,1.1,0.5C152.9,40,152.9,36.7,152.9,36.7z M153.6,40c0.5,0,0.9-0.2,1.1-0.5c0.2-0.3,0.3-0.7,0.3-1.1
	s-0.1-0.8-0.3-1.1c-0.2-0.3-0.6-0.5-1.1-0.5C153.6,36.7,153.6,40,153.6,40z"/>
<path class="st3" d="M158.5,40.5c-0.4,0-0.8-0.1-1.1-0.3c-0.3-0.2-0.5-0.4-0.7-0.8c-0.2-0.3-0.3-0.7-0.3-1.2c0-0.4,0.1-0.8,0.3-1.2
	c0.2-0.3,0.4-0.6,0.7-0.8c0.3-0.2,0.6-0.3,1.1-0.3c0.4,0,0.8,0.1,1.1,0.3c0.3,0.2,0.5,0.4,0.7,0.8c0.2,0.3,0.3,0.7,0.3,1.2
	c0,0.4-0.1,0.8-0.3,1.2c-0.2,0.3-0.4,0.6-0.7,0.8C159.3,40.5,158.9,40.5,158.5,40.5z M158.5,39.9c0.4,0,0.7-0.1,0.9-0.4
	c0.2-0.3,0.3-0.7,0.3-1.2s-0.1-0.9-0.3-1.2c-0.2-0.3-0.5-0.4-0.9-0.4s-0.7,0.1-0.9,0.4c-0.2,0.3-0.3,0.7-0.3,1.2
	c0,0.5,0.1,0.9,0.3,1.2S158.1,39.9,158.5,39.9L158.5,39.9z"/>
<path class="st3" d="M163.7,36.2c0.4,0,0.7,0.1,1,0.3c0.3,0.2,0.5,0.5,0.7,0.8c0.1,0.3,0.2,0.7,0.2,1.2c0,0.4-0.1,0.8-0.2,1.2
	c-0.2,0.3-0.4,0.6-0.6,0.8c-0.3,0.2-0.6,0.3-1,0.3c-0.3,0-0.6-0.1-0.9-0.2c-0.2-0.2-0.4-0.3-0.6-0.6v2c0,0.1,0,0.2-0.1,0.2
	c-0.1,0.1-0.1,0.1-0.3,0.1s-0.2,0-0.3-0.1c-0.1-0.1-0.1-0.1-0.1-0.2v-5.2c0-0.1,0-0.2,0.1-0.3c0.1-0.1,0.1-0.1,0.3-0.1
	s0.2,0,0.3,0.1c0.1,0.1,0.1,0.2,0.1,0.3V37c0.1-0.3,0.3-0.5,0.6-0.6C163.1,36.2,163.4,36.2,163.7,36.2z M163.6,40
	c0.4,0,0.7-0.1,1-0.4c0.2-0.3,0.3-0.7,0.3-1.2c0-0.5-0.1-0.9-0.3-1.2c-0.2-0.3-0.6-0.4-1-0.4s-0.7,0.1-0.9,0.4s-0.3,0.7-0.3,1.2
	c0,0.5,0.1,0.9,0.3,1.2S163.1,39.9,163.6,40z"/>
<path class="st3" d="M170.6,36.2c0.1,0,0.2,0,0.3,0.1c0.1,0.1,0.1,0.2,0.1,0.3v3.7c0,0.1,0,0.2-0.1,0.2s-0.1,0.1-0.2,0.1
	s-0.2,0-0.2-0.1c-0.1-0.1-0.1-0.1-0.1-0.2l0-2.8l-1.2,2.2c0,0.1-0.1,0.1-0.1,0.1c-0.1,0-0.1,0-0.2,0c-0.1,0-0.1,0-0.2,0
	c-0.1,0-0.1-0.1-0.1-0.1l-1.2-2.2l0,2.8c0,0.1,0,0.2-0.1,0.2s-0.1,0.1-0.2,0.1s-0.2,0-0.2-0.1c-0.1-0.1-0.1-0.1-0.1-0.2v-3.7
	c0-0.1,0-0.2,0.1-0.3c0.1-0.1,0.1-0.1,0.3-0.1c0.2,0,0.3,0.1,0.4,0.2l1.4,2.7l1.4-2.7C170.3,36.3,170.4,36.2,170.6,36.2L170.6,36.2z
	"/>
<path class="st3" d="M173.9,36.2c1.1,0,1.6,0.5,1.6,1.7v2.3c0,0.1,0,0.2-0.1,0.3c-0.1,0.1-0.1,0.1-0.2,0.1c-0.1,0-0.2,0-0.3-0.1
	c-0.1-0.1-0.1-0.1-0.1-0.3v-0.4c-0.1,0.2-0.3,0.4-0.5,0.6c-0.2,0.1-0.5,0.2-0.8,0.2c-0.3,0-0.5,0-0.8-0.2s-0.4-0.3-0.5-0.5
	c-0.1-0.2-0.2-0.4-0.2-0.7c0-0.3,0.1-0.6,0.3-0.7c0.2-0.2,0.4-0.3,0.8-0.4s0.9-0.1,1.5-0.1h0.2v-0.3c0-0.3-0.1-0.6-0.2-0.8
	s-0.4-0.2-0.7-0.2c-0.4,0-0.8,0.1-1.2,0.3c-0.2,0.1-0.3,0.1-0.3,0.1c-0.1,0-0.1,0-0.2-0.1c-0.1-0.1-0.1-0.1-0.1-0.2s0-0.2,0.1-0.2
	s0.1-0.1,0.2-0.2c0.2-0.1,0.4-0.2,0.7-0.3C173.4,36.2,173.7,36.2,173.9,36.2L173.9,36.2z M173.6,40c0.3,0,0.6-0.1,0.9-0.3
	s0.3-0.5,0.3-0.9v-0.3h-0.1c-0.5,0-0.9,0-1.2,0.1c-0.3,0-0.5,0.1-0.6,0.2c-0.1,0.1-0.2,0.3-0.2,0.4c0,0.2,0.1,0.4,0.3,0.6
	C173.2,39.9,173.4,40,173.6,40z"/>
<path class="st3" d="M180.6,41.6c-0.1,0-0.2,0-0.2-0.1c-0.1-0.1-0.1-0.2-0.1-0.3v-0.8h-3.1c-0.1,0-0.2,0-0.3-0.1
	c-0.1-0.1-0.1-0.1-0.1-0.3v-3.6c0-0.1,0-0.2,0.1-0.3c0.1-0.1,0.1-0.1,0.3-0.1s0.2,0,0.3,0.1c0.1,0.1,0.1,0.2,0.1,0.3v3.4h2.1v-3.4
	c0-0.1,0-0.2,0.1-0.3c0.1-0.1,0.1-0.1,0.3-0.1c0.1,0,0.2,0,0.3,0.1c0.1,0.1,0.1,0.2,0.1,0.3v3.4h0.3c0.1,0,0.2,0,0.3,0.1
	c0.1,0.1,0.1,0.2,0.1,0.3v1c0,0.1,0,0.2-0.1,0.3C180.8,41.6,180.7,41.6,180.6,41.6L180.6,41.6z"/>
<path class="st3" d="M184.7,36.4c0.1-0.1,0.1-0.1,0.2-0.2c0.1,0,0.1-0.1,0.2-0.1c0.1,0,0.2,0,0.3,0.1c0.1,0.1,0.1,0.2,0.1,0.3v3.6
	c0,0.1,0,0.2-0.1,0.2c-0.1,0.1-0.1,0.1-0.2,0.1c-0.1,0-0.2,0-0.2-0.1c-0.1-0.1-0.1-0.2-0.1-0.2v-3l-2.3,3.2
	c-0.1,0.1-0.2,0.2-0.4,0.2c-0.1,0-0.2,0-0.3-0.1c-0.1-0.1-0.1-0.2-0.1-0.3v-3.6c0-0.1,0-0.2,0.1-0.3c0.1-0.1,0.1-0.1,0.3-0.1
	s0.2,0,0.2,0.1c0.1,0.1,0.1,0.2,0.1,0.3v3L184.7,36.4L184.7,36.4z"/>
<path class="st3" d="M188.5,40.5c-0.4,0-0.8-0.1-1.1-0.3c-0.3-0.2-0.5-0.4-0.7-0.8s-0.3-0.7-0.3-1.2c0-0.4,0.1-0.8,0.3-1.2
	c0.2-0.3,0.4-0.6,0.7-0.8c0.3-0.2,0.6-0.3,1.1-0.3c0.4,0,0.8,0.1,1.1,0.3c0.3,0.2,0.5,0.4,0.7,0.8c0.2,0.3,0.3,0.7,0.3,1.2
	c0,0.4-0.1,0.8-0.3,1.2c-0.2,0.3-0.4,0.6-0.7,0.8C189.3,40.5,188.9,40.5,188.5,40.5z M188.5,39.9c0.4,0,0.7-0.1,1-0.4
	c0.2-0.3,0.3-0.7,0.3-1.2s-0.1-0.9-0.3-1.2c-0.2-0.3-0.5-0.4-0.9-0.4s-0.7,0.1-0.9,0.4c-0.2,0.3-0.3,0.7-0.3,1.2
	c0,0.5,0.1,0.9,0.3,1.2C187.8,39.8,188.1,39.9,188.5,39.9L188.5,39.9z"/>
<path class="st3" d="M191.9,40.5c-0.1,0-0.2,0-0.3-0.1c-0.1-0.1-0.1-0.2-0.1-0.3v-3.7c0-0.1,0-0.2,0.1-0.3c0.1-0.1,0.1-0.1,0.3-0.1
	s0.2,0,0.3,0.1c0.1,0.1,0.1,0.2,0.1,0.3V38h2.3v-1.5c0-0.1,0-0.2,0.1-0.3c0.1-0.1,0.1-0.1,0.3-0.1c0.1,0,0.2,0,0.3,0.1
	c0.1,0.1,0.1,0.2,0.1,0.3l0,3.6c0,0.1,0,0.2-0.1,0.3c-0.1,0.1-0.1,0.1-0.3,0.1c-0.1,0-0.2,0-0.3-0.1c-0.1-0.1-0.1-0.2-0.1-0.3v-1.6
	h-2.3v1.6c0,0.1,0,0.2-0.1,0.3C192.1,40.5,192,40.5,191.9,40.5z"/>
<path class="st3" d="M196.8,40.5c-0.1,0-0.2,0-0.3-0.1c-0.1-0.1-0.1-0.2-0.1-0.3v-3.7c0-0.1,0-0.2,0.1-0.3c0.1-0.1,0.1-0.1,0.3-0.1
	c0.1,0,0.2,0,0.3,0.1c0.1,0.1,0.1,0.2,0.1,0.3V38h2.3v-1.5c0-0.1,0-0.2,0.1-0.3c0.1-0.1,0.1-0.1,0.3-0.1c0.1,0,0.2,0,0.3,0.1
	c0.1,0.1,0.1,0.2,0.1,0.3l0,3.6c0,0.1,0,0.2-0.1,0.3c-0.1,0.1-0.1,0.1-0.3,0.1c-0.1,0-0.2,0-0.3-0.1c-0.1-0.1-0.1-0.2-0.1-0.3v-1.6
	h-2.3v1.6c0,0.1,0,0.2-0.1,0.3C197,40.5,196.9,40.5,196.8,40.5z"/>
<path class="st3" d="M201.8,40.5c-0.1,0-0.2,0-0.3-0.1c-0.1-0.1-0.1-0.2-0.1-0.3v-3.6c0-0.1,0-0.2,0.1-0.3c0.1-0.1,0.1-0.1,0.3-0.1
	c0.1,0,0.2,0,0.3,0.1c0.1,0.1,0.1,0.2,0.1,0.3v1.3h0.6c1.1,0,1.6,0.4,1.6,1.3c0,0.3-0.1,0.6-0.2,0.8c-0.2,0.2-0.4,0.4-0.6,0.5
	c-0.3,0.1-0.5,0.1-0.8,0.1H201.8z M205.4,40.5c-0.1,0-0.2,0-0.3-0.1c-0.1-0.1-0.1-0.2-0.1-0.3v-3.7c0-0.1,0-0.2,0.1-0.3
	c0.1-0.1,0.1-0.1,0.3-0.1c0.1,0,0.2,0,0.3,0.1c0.1,0.1,0.1,0.2,0.1,0.3v3.7c0,0.1,0,0.2-0.1,0.3C205.6,40.5,205.5,40.5,205.4,40.5z
	 M202.6,40c0.3,0,0.5-0.1,0.7-0.2c0.2-0.1,0.3-0.3,0.3-0.7s-0.1-0.5-0.3-0.6s-0.4-0.2-0.8-0.2h-0.5V40H202.6z"/>
<path class="st3" d="M209.9,36.4c0.1-0.1,0.1-0.1,0.2-0.2c0.1,0,0.1-0.1,0.2-0.1c0.1,0,0.2,0,0.3,0.1c0.1,0.1,0.1,0.2,0.1,0.3v3.6
	c0,0.1,0,0.2-0.1,0.2c-0.1,0.1-0.1,0.1-0.2,0.1c-0.1,0-0.2,0-0.2-0.1c-0.1-0.1-0.1-0.2-0.1-0.2v-3l-2.3,3.2
	c-0.1,0.1-0.2,0.2-0.4,0.2c-0.1,0-0.2,0-0.3-0.1c-0.1-0.1-0.1-0.2-0.1-0.3v-3.6c0-0.1,0-0.2,0.1-0.3c0.1-0.1,0.1-0.1,0.3-0.1
	s0.2,0,0.2,0.1c0.1,0.1,0.1,0.2,0.1,0.3v3C207.7,39.5,209.9,36.4,209.9,36.4z M208.9,35.4c-0.3,0-0.6-0.1-0.8-0.2
	c-0.2-0.2-0.4-0.4-0.5-0.7c0,0,0-0.1,0-0.1c0-0.1,0-0.1,0.1-0.2c0.1,0,0.1-0.1,0.2-0.1c0.1,0,0.2,0,0.3,0.2c0.2,0.4,0.5,0.6,0.9,0.6
	c0.2,0,0.4,0,0.5-0.2c0.1-0.1,0.3-0.3,0.4-0.4c0.1-0.1,0.1-0.2,0.3-0.2c0.1,0,0.1,0,0.2,0.1c0.1,0,0.1,0.1,0.1,0.2c0,0,0,0.1,0,0.1
	c-0.1,0.3-0.3,0.5-0.5,0.6C209.5,35.3,209.2,35.4,208.9,35.4L208.9,35.4z"/>
<path class="st3" d="M223.2,39.5c0.1,0,0.1,0,0.2,0.1c0.1,0.1,0.1,0.1,0.1,0.2c0,0.2-0.1,0.3-0.3,0.4c-0.2,0.1-0.4,0.2-0.7,0.3
	c-0.2,0.1-0.5,0.1-0.7,0.1c-0.7,0-1.2-0.2-1.6-0.6c-0.4-0.4-0.6-0.9-0.6-1.6c0-0.4,0.1-0.8,0.3-1.1c0.2-0.3,0.4-0.6,0.7-0.8
	c0.3-0.2,0.6-0.3,1-0.3c0.6,0,1,0.2,1.3,0.5c0.3,0.4,0.5,0.8,0.5,1.5c0,0.1,0,0.2-0.1,0.3c-0.1,0-0.1,0.1-0.2,0.1h-2.8
	c0.1,1,0.5,1.5,1.4,1.5c0.2,0,0.4,0,0.6-0.1c0.2-0.1,0.3-0.1,0.5-0.2C223.1,39.5,223.2,39.5,223.2,39.5L223.2,39.5z M221.7,36.7
	c-0.4,0-0.7,0.1-0.9,0.3c-0.2,0.2-0.4,0.5-0.4,1h2.4c0-0.4-0.1-0.8-0.3-1C222.3,36.8,222.1,36.7,221.7,36.7L221.7,36.7z"/>
<path class="st3" d="M226.3,40.5c-0.4,0-0.7-0.1-1.1-0.3c-0.3-0.2-0.5-0.4-0.7-0.8c-0.2-0.3-0.3-0.7-0.3-1.1c0-0.4,0.1-0.8,0.3-1.2
	c0.2-0.3,0.4-0.6,0.7-0.8c0.3-0.2,0.7-0.3,1.1-0.3c0.2,0,0.4,0,0.6,0.1c0.2,0.1,0.4,0.2,0.6,0.3c0.1,0.1,0.2,0.1,0.2,0.2
	c0,0.1,0.1,0.1,0.1,0.2c0,0.1,0,0.1-0.1,0.2c0,0.1-0.1,0.1-0.2,0.1c0,0-0.1,0-0.1,0c0,0-0.1,0-0.1-0.1c0,0-0.1,0-0.1,0
	c-0.1-0.1-0.3-0.2-0.4-0.2c-0.1-0.1-0.3-0.1-0.5-0.1c-0.4,0-0.7,0.2-1,0.4c-0.2,0.3-0.4,0.7-0.4,1.2c0,0.5,0.1,0.9,0.4,1.2
	c0.2,0.3,0.6,0.4,1,0.4c0.2,0,0.4,0,0.5-0.1s0.3-0.1,0.4-0.2c0.1,0,0.1-0.1,0.2-0.1s0.1,0,0.1,0c0.1,0,0.1,0,0.2,0.1
	c0,0,0.1,0.1,0.1,0.2c0,0.1,0,0.2-0.1,0.2c0,0.1-0.1,0.1-0.2,0.2c-0.2,0.1-0.4,0.2-0.6,0.3C226.7,40.5,226.5,40.5,226.3,40.5z"/>
<path class="st3" d="M231.7,36.4c0.1-0.1,0.2-0.2,0.3-0.2c0.1,0,0.2,0,0.2,0.1c0.1,0.1,0.1,0.1,0.1,0.2c0,0,0,0.1,0,0.1l-2.4,5.3
	c0,0.1-0.1,0.1-0.1,0.1c-0.1,0-0.1,0.1-0.2,0.1c-0.1,0-0.2,0-0.2-0.1c-0.1,0-0.1-0.1-0.1-0.2c0,0,0-0.1,0-0.1l0.6-1.3l-1.7-3.7
	c0,0,0-0.1,0-0.1c0-0.1,0-0.2,0.1-0.2s0.2-0.1,0.3-0.1c0.1,0,0.1,0,0.2,0.1c0.1,0,0.1,0.1,0.1,0.1l1.4,3.3L231.7,36.4L231.7,36.4z"
	/>
<path class="st3" d="M235.2,36.2c0.4,0,0.7,0.1,1,0.3c0.3,0.2,0.5,0.5,0.6,0.8c0.2,0.3,0.2,0.7,0.2,1.2c0,0.4-0.1,0.8-0.2,1.2
	c-0.1,0.3-0.4,0.6-0.6,0.8c-0.3,0.2-0.6,0.3-1,0.3c-0.3,0-0.6-0.1-0.9-0.2c-0.3-0.2-0.4-0.3-0.6-0.6v2c0,0.1,0,0.2-0.1,0.2
	c-0.1,0.1-0.1,0.1-0.3,0.1s-0.2,0-0.3-0.1c-0.1-0.1-0.1-0.1-0.1-0.2v-5.2c0-0.1,0-0.2,0.1-0.3c0.1-0.1,0.1-0.1,0.3-0.1
	s0.2,0,0.3,0.1c0.1,0.1,0.1,0.2,0.1,0.3V37c0.1-0.3,0.3-0.5,0.6-0.6C234.6,36.2,234.9,36.2,235.2,36.2z M235.1,40
	c0.4,0,0.7-0.1,0.9-0.4c0.2-0.3,0.3-0.7,0.3-1.2c0-0.5-0.1-0.9-0.3-1.2c-0.2-0.3-0.5-0.4-0.9-0.4s-0.7,0.1-0.9,0.4s-0.3,0.7-0.3,1.2
	c0,0.5,0.1,0.9,0.3,1.2S234.7,39.9,235.1,40z"/>
<path class="st3" d="M239.9,40.5c-0.4,0-0.7-0.1-1-0.3c-0.3-0.2-0.5-0.4-0.7-0.8c-0.2-0.3-0.3-0.7-0.3-1.1c0-0.4,0.1-0.8,0.3-1.2
	c0.2-0.3,0.4-0.6,0.7-0.8c0.3-0.2,0.7-0.3,1.1-0.3c0.2,0,0.4,0,0.6,0.1c0.2,0.1,0.4,0.2,0.6,0.3c0.1,0.1,0.2,0.1,0.2,0.2
	c0,0.1,0.1,0.1,0.1,0.2c0,0.1,0,0.1-0.1,0.2c0,0.1-0.1,0.1-0.2,0.1c0,0-0.1,0-0.1,0c-0.1,0-0.1,0-0.1-0.1c0,0-0.1,0-0.1,0
	c-0.1-0.1-0.3-0.2-0.4-0.2s-0.3-0.1-0.5-0.1c-0.4,0-0.8,0.2-1,0.4c-0.2,0.3-0.4,0.7-0.4,1.2c0,0.5,0.1,0.9,0.4,1.2
	c0.2,0.3,0.6,0.4,1,0.4c0.2,0,0.4,0,0.5-0.1s0.3-0.1,0.4-0.2c0.1,0,0.1-0.1,0.2-0.1s0.1,0,0.1,0c0.1,0,0.1,0,0.2,0.1
	c0,0,0.1,0.1,0.1,0.2c0,0.1,0,0.2-0.1,0.2c0,0.1-0.1,0.1-0.2,0.2c-0.2,0.1-0.4,0.2-0.6,0.3C240.3,40.5,240.1,40.5,239.9,40.5z"/>
<path class="st3" d="M96,8.3c0.5,0,0.9,0.2,1.2,0.5c0.3,0.3,0.5,0.7,0.5,1.3v12.8c0,0.5-0.2,0.9-0.4,1.2c-0.3,0.3-0.7,0.4-1.1,0.4
	c-0.4,0-0.8-0.1-1.1-0.4c-0.3-0.3-0.4-0.7-0.4-1.2v-8l-3.2,6c-0.2,0.4-0.4,0.7-0.7,0.9S90.1,22,89.8,22c-0.3,0-0.6-0.1-0.9-0.3
	c-0.3-0.2-0.5-0.5-0.7-0.9L85,15v7.9c0,0.5-0.1,0.9-0.4,1.2c-0.3,0.3-0.7,0.4-1.1,0.4s-0.8-0.1-1.1-0.4c-0.3-0.3-0.4-0.7-0.4-1.2V10
	c0-0.5,0.2-0.9,0.5-1.3c0.3-0.3,0.7-0.5,1.2-0.5c0.7,0,1.3,0.4,1.7,1.1l4.6,8.7l4.6-8.7C94.8,8.6,95.3,8.3,96,8.3z"/>
<path class="st3" d="M111.2,9.3c0.3-0.4,0.6-0.7,0.9-0.9c0.3-0.1,0.8-0.2,1.3-0.2c0.5,0,0.9,0.1,1.2,0.4c0.3,0.3,0.4,0.7,0.4,1.2
	v12.8c0,0.5-0.2,1-0.5,1.3c-0.3,0.3-0.7,0.5-1.3,0.5c-0.5,0-0.9-0.2-1.3-0.5c-0.3-0.3-0.5-0.7-0.5-1.3v-9.3L105,23
	c-0.4,0.6-0.8,1-1.1,1.2s-0.8,0.3-1.3,0.3c-0.5,0-0.9-0.1-1.2-0.4c-0.3-0.3-0.4-0.7-0.4-1.2V10c0-0.5,0.2-0.9,0.5-1.3
	c0.3-0.3,0.7-0.5,1.3-0.5s0.9,0.2,1.3,0.5c0.3,0.3,0.5,0.7,0.5,1.3v9.2C104.3,19.2,111.2,9.3,111.2,9.3z"/>
<path class="st3" d="M119.9,24.4c-0.5,0-1-0.2-1.3-0.5c-0.3-0.3-0.5-0.8-0.5-1.3V10c0-0.5,0.2-0.9,0.4-1.2c0.3-0.3,0.7-0.4,1.2-0.4
	h5.7c1.7,0,3.1,0.4,4,1.3c1,0.9,1.4,2.1,1.4,3.7c0,1.6-0.5,2.8-1.4,3.7c-1,0.9-2.3,1.3-4,1.3h-3.8v4.4c0,0.5-0.2,1-0.5,1.3
	C120.9,24.2,120.5,24.4,119.9,24.4L119.9,24.4z M125,15.6c1.8,0,2.7-0.8,2.7-2.3c0-1.5-0.9-2.3-2.7-2.3h-3.3v4.6H125z"/>
<path class="st3" d="M144.8,24.5c-1,0-1.9-0.1-2.8-0.3c-0.9-0.2-1.7-0.5-2.4-0.9c-0.3-0.2-0.6-0.4-0.7-0.7c-0.2-0.3-0.3-0.5-0.3-0.8
	c0-0.4,0.1-0.7,0.4-0.9s0.6-0.4,0.9-0.4c0.3,0,0.6,0.1,0.9,0.2c0.6,0.4,1.3,0.6,1.8,0.7c0.6,0.1,1.1,0.2,1.7,0.2
	c1.1,0,2-0.2,2.6-0.5s1-0.9,1-1.5c0-0.7-0.2-1.2-0.6-1.6c-0.4-0.3-1.1-0.5-2.2-0.5h-1.8c-0.5,0-0.9-0.1-1.2-0.4s-0.4-0.6-0.4-1
	c0-0.4,0.1-0.7,0.4-0.9c0.3-0.3,0.7-0.4,1.2-0.4h1.4c1,0,1.7-0.2,2.2-0.5c0.5-0.3,0.7-0.8,0.7-1.5c0-0.6-0.2-1.1-0.7-1.4
	c-0.5-0.3-1.2-0.5-2-0.5c-0.7,0-1.3,0.1-1.8,0.2s-1.1,0.4-1.8,0.7c-0.3,0.1-0.5,0.2-0.8,0.2c-0.4,0-0.7-0.1-1-0.4
	c-0.3-0.3-0.4-0.6-0.4-0.9c0-0.3,0.1-0.5,0.3-0.8c0.2-0.3,0.4-0.5,0.8-0.6c1.5-0.8,3.3-1.2,5.4-1.2c1.8,0,3.2,0.4,4.2,1.2
	c1,0.8,1.5,1.8,1.5,3.1c0,0.9-0.2,1.6-0.7,2.2c-0.5,0.6-1.1,1.1-2,1.4c2,0.5,3,1.8,3,3.6c0,0.9-0.3,1.8-0.8,2.5
	c-0.6,0.7-1.3,1.3-2.4,1.7C147.3,24.3,146.1,24.5,144.8,24.5z"/>
<path class="st3" d="M154.1,27.3c-0.5,0-0.9-0.1-1.1-0.4c-0.3-0.3-0.4-0.7-0.4-1.2v-2.3c0-0.5,0.1-0.9,0.4-1.3
	c0.3-0.3,0.7-0.5,1.2-0.5h0.1c0.4-0.8,0.6-1.6,0.8-2.5c0.1-0.9,0.2-1.9,0.2-3v-1.3c0-0.5,0.1-0.9,0.4-1.3c0.3-0.3,0.7-0.5,1.2-0.5
	h5.5c0.5,0,0.9,0.1,1.3,0.4c0.3,0.3,0.5,0.7,0.5,1.2v7h0.1c0.5,0,0.9,0.1,1.3,0.4c0.3,0.3,0.5,0.7,0.5,1.1v2.4
	c0,0.5-0.1,0.9-0.4,1.2c-0.3,0.3-0.7,0.4-1.1,0.4s-0.9-0.1-1.1-0.4c-0.3-0.3-0.4-0.7-0.4-1.2v-1.4h-7.1v1.4c0,0.5-0.1,0.9-0.4,1.2
	C155,27.2,154.6,27.3,154.1,27.3z M160.7,15.7h-2.5v0.5c0,1.2-0.1,2.3-0.3,3.3c-0.2,1-0.5,1.7-0.9,2.2h3.6L160.7,15.7L160.7,15.7z"
	/>
<path class="st3" d="M172.7,24.5c-1.2,0-2.2-0.2-3.1-0.7c-0.9-0.5-1.6-1.1-2.1-2c-0.5-0.9-0.7-1.9-0.7-3.1s0.2-2.2,0.7-3.1
	c0.5-0.9,1.2-1.5,2.1-2c0.9-0.5,1.9-0.7,3.1-0.7c1.2,0,2.2,0.2,3.1,0.7c0.9,0.5,1.6,1.1,2.1,2c0.5,0.9,0.7,1.9,0.7,3.1
	s-0.3,2.2-0.7,3.1c-0.5,0.9-1.2,1.5-2.1,2C174.9,24.2,173.8,24.5,172.7,24.5z M172.7,21.9c1.6,0,2.5-1.1,2.5-3.2
	c0-1.1-0.2-1.9-0.6-2.4c-0.4-0.5-1.1-0.8-1.8-0.8c-1.7,0-2.5,1.1-2.5,3.2S171,21.9,172.7,21.9z"/>
<path class="st3" d="M187.5,12.9c0.9,0,1.8,0.3,2.5,0.7c0.8,0.5,1.3,1.2,1.7,2.1c0.4,0.9,0.6,1.9,0.6,3c0,1.1-0.2,2.1-0.6,3
	c-0.4,0.9-1,1.5-1.7,2c-0.7,0.5-1.6,0.7-2.6,0.7c-0.8,0-1.4-0.2-2-0.5c-0.6-0.3-1.1-0.7-1.4-1.3V27c0,0.5-0.1,0.8-0.4,1.1
	c-0.3,0.3-0.7,0.4-1.2,0.4c-0.5,0-0.9-0.1-1.3-0.4c-0.3-0.3-0.5-0.7-0.5-1.1V14.6c0-0.5,0.2-0.9,0.5-1.2c0.3-0.3,0.7-0.4,1.2-0.4
	c0.5,0,0.9,0.1,1.2,0.4s0.5,0.7,0.5,1.2v0.2c0.3-0.6,0.8-1,1.4-1.3C186,13.1,186.7,12.9,187.5,12.9L187.5,12.9z M186.5,21.9
	c0.8,0,1.4-0.3,1.9-0.8c0.4-0.5,0.7-1.3,0.7-2.3c0-1-0.2-1.8-0.7-2.4c-0.4-0.6-1.1-0.9-1.9-0.9s-1.4,0.3-1.9,0.8s-0.6,1.3-0.6,2.4
	c0,1,0.2,1.8,0.6,2.3C185.1,21.6,185.7,21.9,186.5,21.9z"/>
<path class="st3" d="M199.8,24.5c-1.2,0-2.2-0.2-3.1-0.7c-0.9-0.5-1.6-1.1-2.1-2c-0.5-0.9-0.7-1.9-0.7-3.1s0.2-2.2,0.7-3.1
	c0.5-0.9,1.2-1.5,2.1-2c0.9-0.5,1.9-0.7,3.1-0.7c1.2,0,2.2,0.2,3.1,0.7c0.9,0.5,1.6,1.1,2.1,2c0.5,0.9,0.7,1.9,0.7,3.1
	s-0.2,2.2-0.7,3.1c-0.5,0.9-1.2,1.5-2.1,2C202,24.2,200.9,24.5,199.8,24.5z M199.8,21.9c1.7,0,2.5-1.1,2.5-3.2
	c0-1.1-0.2-1.9-0.6-2.4c-0.4-0.5-1-0.8-1.8-0.8c-1.6,0-2.5,1.1-2.5,3.2S198.1,21.9,199.8,21.9L199.8,21.9z"/>
<path class="st3" d="M209.4,24.3c-0.5,0-0.9-0.1-1.3-0.4c-0.3-0.3-0.5-0.7-0.5-1.2v-7.8c0-0.5,0.1-0.9,0.4-1.3s0.7-0.5,1.2-0.5h4.3
	c1.3,0,2.3,0.3,3,0.8c0.7,0.5,1.1,1.2,1.1,2.1c0,0.6-0.2,1.1-0.5,1.5c-0.3,0.5-0.8,0.8-1.4,1c1.5,0.4,2.2,1.3,2.2,2.6
	c0,0.9-0.4,1.7-1.2,2.3s-1.9,0.9-3.2,0.9C213.6,24.3,209.4,24.3,209.4,24.3z M212.9,17.6c1,0,1.5-0.4,1.5-1.1c0-0.4-0.1-0.6-0.4-0.8
	c-0.2-0.2-0.6-0.3-1.1-0.3H211v2.1H212.9L212.9,17.6z M212.9,22.1c1.1,0,1.7-0.4,1.7-1.2c0-0.4-0.1-0.7-0.4-0.9
	c-0.2-0.2-0.6-0.3-1.2-0.3H211v2.4L212.9,22.1L212.9,22.1z"/>
<path class="st3" d="M221.8,24.3c-0.5,0-0.9-0.1-1.3-0.4c-0.3-0.3-0.5-0.7-0.5-1.2v-8.1c0-0.5,0.2-0.9,0.5-1.2
	c0.3-0.3,0.7-0.4,1.3-0.4c0.5,0,0.9,0.1,1.2,0.4c0.3,0.3,0.4,0.7,0.4,1.2v2.2h2c2.9,0,4.4,1.2,4.4,3.7c0,0.8-0.2,1.5-0.6,2.1
	s-1,1-1.7,1.3c-0.7,0.3-1.4,0.5-2.2,0.5L221.8,24.3L221.8,24.3z M224.5,22c0.5,0,1-0.1,1.4-0.4c0.4-0.2,0.6-0.6,0.6-1.2
	c0-0.6-0.2-0.9-0.6-1.1c-0.4-0.2-0.8-0.3-1.4-0.3h-1.1v3C223.4,22,224.5,22,224.5,22z"/>
<path class="st3" d="M240.1,24.4c-0.5,0-0.9-0.1-1.3-0.4c-0.3-0.3-0.5-0.7-0.5-1.2v-2h-0.4c-0.9,0-1.6,0.3-2,0.9l-1.6,2.1
	c-0.4,0.5-0.9,0.8-1.5,0.8c-0.4,0-0.8-0.1-1.1-0.4c-0.3-0.3-0.5-0.6-0.5-1.1c0-0.3,0.1-0.6,0.3-1l0.2-0.3c0.4-0.6,0.8-1.1,1.3-1.5
	c0.4-0.4,0.9-0.7,1.4-0.8c-0.9-0.2-1.5-0.6-2-1.1s-0.7-1.1-0.7-1.9c0-1.1,0.4-1.9,1.1-2.5c0.7-0.6,1.7-0.9,3-0.9h4.2
	c0.5,0,0.9,0.1,1.3,0.4c0.3,0.3,0.5,0.7,0.5,1.2v8c0,0.5-0.1,0.9-0.5,1.2C241,24.3,240.6,24.4,240.1,24.4z M238.4,15.5h-1.7
	c-0.6,0-1,0.1-1.3,0.3c-0.3,0.2-0.4,0.6-0.4,1.1c0,0.5,0.2,0.9,0.5,1.2c0.3,0.3,0.7,0.4,1.2,0.4h1.7L238.4,15.5L238.4,15.5z"/>
</svg>
