<svg width="54" height="42" viewBox="0 0 54 42" fill="none" xmlns="http://www.w3.org/2000/svg">
<path d="M25.9152 1.35945e-06L16.4898 19.1509C20.8666 21.1668 22.8859 25.1993 22.8859 29.9038C22.8859 36.9605 17.8359 42 11.4425 42C5.38458 42 -3.37396e-06 36.9585 -2.75722e-06 29.9038C-2.40474e-06 25.872 1.68218 22.8471 4.0377 19.1509L16.4898 5.35453e-07L25.9152 1.35945e-06ZM50.9707 29.9038C50.9707 36.9605 45.9207 42 39.5279 42C33.47 42 28.0854 36.9585 28.0854 29.9038C28.0854 25.872 29.7669 22.8471 32.1231 19.1509L44.5772 2.99093e-06L54 3.8147e-06L44.5765 19.1509C48.95 21.1668 50.9707 25.1993 50.9707 29.9012L50.9707 29.9038Z" fill="#E3061B"/>
</svg>
