<?xml version="1.0" encoding="utf-8"?>
<!-- Generator: Adobe Illustrator 22.0.1, SVG Export Plug-In . SVG Version: 6.00 Build 0)  -->
<svg version="1.1" id="Laag_1" xmlns="http://www.w3.org/2000/svg" x="0px" y="0px"
     viewBox="0 0 16 16" style="enable-background:new 0 0 16 16;" xml:space="preserve">
<path d="M10.6,5.9v4.5h1.1V8.9h0.2l1,1.6l1.2-0.2l-1.1-1.6c0.5-0.2,0.9-0.7,0.9-1.2c0-1.1-0.7-1.5-1.6-1.5L10.6,5.9z M12.1,6.8
	c0.3,0,0.7,0.2,0.7,0.6c0,0,0,0,0,0.1c0,0.7-0.7,0.6-0.7,0.6h-0.4V6.8H12.1z"/>
<path d="M7.3,5.9l-1.6,4.5h1.1l0.3-0.9h1.5l0.3,1l1.2-0.2L8.5,5.9H7.3z M7.8,7.1l0.5,1.6h-1L7.8,7.1z"/>
<path d="M3.1,5.9L1.8,6.1l1.6,4.4h1.2L6.2,6H5.1l-1,3.1L3.1,5.9z"/>
</svg>
