<svg width="55" height="48" viewBox="0 0 55 48" fill="none" xmlns="http://www.w3.org/2000/svg">
<path d="M2.4907 41.9025L25.086 2.691C26.3576 0.436335 29.6833 0.436335 30.9549 2.691L53.5502 41.9025C54.8218 44.1572 53.2568 47 50.6158 47H5.42516C2.78415 47 1.12129 44.1572 2.4907 41.9025Z" stroke="#D90303" stroke-width="2" stroke-miterlimit="10"/>
<path d="M29.854 12.257L29.6232 30.807H26.6588L26.4103 12.257H29.854ZM26.3037 36.4519C26.3037 35.9194 26.4635 35.4697 26.783 35.1028C27.1144 34.736 27.5996 34.5525 28.2386 34.5525C28.8658 34.5525 29.3451 34.736 29.6765 35.1028C30.0197 35.4697 30.1913 35.9194 30.1913 36.4519C30.1913 36.9608 30.0197 37.3987 29.6765 37.7655C29.3451 38.1324 28.8658 38.3158 28.2386 38.3158C27.5996 38.3158 27.1144 38.1324 26.783 37.7655C26.4635 37.3987 26.3037 36.9608 26.3037 36.4519Z" fill="#E3061B"/>
</svg>
